<?xml version="1.0" encoding="utf-8"?>
<!-- Generator: Adobe Illustrator 26.0.2, SVG Export Plug-In . SVG Version: 6.00 Build 0)  -->
<svg version="1.1" id="Lager_1" xmlns="http://www.w3.org/2000/svg" xmlns:xlink="http://www.w3.org/1999/xlink" x="0px" y="0px"
	 viewBox="0 0 100 100" style="enable-background:new 0 0 100 100;" xml:space="preserve">
<style type="text/css">
	.st0{fill:none;stroke:#030304;stroke-width:6;stroke-linecap:round;stroke-miterlimit:10;}
	.st1{fill:#020203;}
</style>
<path class="st0" d="M25.54,74.52c0,0-8.62-28.95,24.33-39.11C81.4,25.67,85.81,43.3,78,59.01c-1.61,3.24-6.61,6.34-13.68,3.31
	c-2.72-1.16-8.62-6.29-12.25-13.21c-3.38-6.43-5.84-15.16,0.09-22.18C60.42,17.13,65.47,45,95.12,57.7"/>
<g>
	<path class="st1" d="M14.27,63.04l-0.05,0.6l4.49,0.4l-0.23,2.55L3.29,65.24l0.23-2.55l8.96,0.8l-0.26-0.54l-4.16-2.16l0.25-2.76
		l4.12,2.35l0.65,0.99l0.82-0.94l5.27-1.73l-0.26,2.87L14.27,63.04z"/>
	<path class="st1" d="M20.95,53.57l-6.28-2.09c-0.76-0.25-1.32-0.34-1.68-0.27c-0.36,0.08-0.61,0.33-0.76,0.75
		c-0.12,0.35-0.11,0.7,0.03,1.03s0.35,0.61,0.64,0.82l7.17,2.4l-0.81,2.43L8.93,55.18l0.64-1.94l1.3,0.11l0.02-0.06
		c-0.32-0.38-0.55-0.82-0.69-1.34s-0.1-1.12,0.13-1.79c0.14-0.41,0.32-0.76,0.55-1.03c0.23-0.27,0.52-0.48,0.88-0.6
		c0.35-0.12,0.79-0.16,1.3-0.11c0.52,0.05,1.12,0.19,1.82,0.43l6.88,2.3L20.95,53.57z"/>
	<path class="st1" d="M14.3,42.4l5.49,3.51c0.72,0.46,1.27,0.71,1.63,0.76c0.37,0.05,0.66-0.1,0.88-0.45
		c0.21-0.33,0.27-0.7,0.17-1.09c-0.1-0.39-0.3-0.75-0.59-1.07l-6.13-3.92l1.38-2.15l6.39,4.09c0.5,0.32,1,0.62,1.51,0.89
		c0.51,0.27,0.99,0.49,1.44,0.64l-1.04,1.63l-1.49-0.42l-0.03,0.05c0.28,0.51,0.44,1.04,0.47,1.61c0.03,0.58-0.14,1.15-0.51,1.73
		c-0.24,0.38-0.51,0.67-0.79,0.89c-0.29,0.22-0.63,0.35-1.01,0.39c-0.39,0.04-0.84-0.03-1.36-0.21c-0.52-0.18-1.12-0.49-1.8-0.93
		l-5.97-3.81L14.3,42.4z"/>
	<path class="st1" d="M18.76,36.08l0.82-0.84l-1.46-1.43l1.22-2.4l2.03,2l1.46-1.49l1.65,1.61l-1.46,1.49l3.39,3.32
		c0.45,0.44,0.81,0.7,1.07,0.8c0.27,0.09,0.52,0.03,0.74-0.2c0.15-0.15,0.27-0.31,0.36-0.46s0.17-0.33,0.25-0.53l1.7,1.22
		c-0.1,0.33-0.27,0.7-0.48,1.06c-0.21,0.37-0.48,0.72-0.8,1.05c-0.58,0.58-1.18,0.85-1.8,0.81s-1.35-0.46-2.15-1.25l-4.08-4
		l-0.82,0.84L18.76,36.08z"/>
	<path class="st1" d="M36.55,34.44c-0.12,0.46-0.38,0.95-0.78,1.46c-0.4,0.52-0.88,0.95-1.44,1.33c-0.62,0.41-1.23,0.66-1.82,0.74
		c-0.59,0.08-1.17,0.01-1.73-0.21c-0.56-0.21-1.11-0.58-1.63-1.07s-1.04-1.12-1.54-1.86c-1.09-1.63-1.57-3.05-1.45-4.26
		c0.12-1.2,0.75-2.18,1.88-2.94c0.38-0.26,0.79-0.45,1.23-0.57c0.44-0.12,0.88-0.15,1.35-0.06c0.46,0.09,0.93,0.3,1.41,0.64
		c0.47,0.33,0.94,0.85,1.4,1.54c0.18,0.27,0.35,0.56,0.52,0.88c0.17,0.33,0.34,0.68,0.52,1.07l-4.34,2.89
		c0.52,0.73,1.06,1.2,1.61,1.42c0.55,0.21,1.14,0.1,1.78-0.32c0.38-0.26,0.69-0.55,0.93-0.88c0.23-0.33,0.39-0.62,0.47-0.87
		L36.55,34.44z M29.23,29.49c-0.45,0.3-0.67,0.71-0.65,1.24c0.02,0.52,0.23,1.12,0.64,1.81l2.47-1.65
		c-0.42-0.71-0.84-1.18-1.26-1.43C30.01,29.23,29.62,29.24,29.23,29.49z"/>
	<path class="st1" d="M42.91,32.92l-2.12-6.28c-0.26-0.76-0.52-1.25-0.81-1.5c-0.27-0.24-0.63-0.29-1.05-0.15
		c-0.35,0.12-0.62,0.33-0.81,0.64c-0.18,0.31-0.27,0.64-0.27,1.01l2.42,7.16l-2.42,0.82l-3.49-10.32l1.93-0.65l0.69,1.1l0.06-0.02
		c0.11-0.48,0.33-0.94,0.65-1.36s0.82-0.76,1.5-0.98c0.4-0.14,0.79-0.2,1.15-0.18c0.36,0.02,0.7,0.13,1.01,0.33
		c0.31,0.21,0.6,0.53,0.88,0.97c0.27,0.44,0.52,1,0.76,1.71l2.34,6.87L42.91,32.92z"/>
</g>
</svg>
