<?xml version="1.0" encoding="utf-8"?>
<!-- Generator: Adobe Illustrator 26.0.2, SVG Export Plug-In . SVG Version: 6.00 Build 0)  -->
<svg version="1.1" id="Lager_2_00000128476944116057282530000009388007512879389077_"
	 xmlns="http://www.w3.org/2000/svg" xmlns:xlink="http://www.w3.org/1999/xlink" x="0px" y="0px" viewBox="0 0 100 100"
	 style="enable-background:new 0 0 100 100;" xml:space="preserve">
<style type="text/css">
	.st0{fill:none;stroke:#010202;stroke-width:6;stroke-linecap:round;stroke-miterlimit:10;}
</style>
<path class="st0" d="M29.3,81.49c0,0-10.04-33.72,28.34-45.56c36.74-11.34,41.87,9.2,32.78,27.49c-1.88,3.78-7.7,7.38-15.94,3.85
	c-7.44-3.19-35.51-27.59-1.5-48.98"/>
<g>
	<path d="M16.66,68.04l-0.06,0.7l5.23,0.47l-0.27,2.97L3.86,70.6l0.27-2.97l10.44,0.93l-0.3-0.63l-4.85-2.52l0.29-3.22l4.8,2.74
		l0.76,1.15l0.96-1.1l6.14-2.02l-0.3,3.34L16.66,68.04z"/>
	<path d="M24.44,57.01l-7.32-2.44c-0.88-0.29-1.54-0.4-1.96-0.31s-0.71,0.38-0.88,0.87c-0.14,0.41-0.13,0.81,0.03,1.2
		s0.41,0.71,0.75,0.96l8.35,2.79l-0.94,2.83l-12.04-4.02l0.75-2.26l1.51,0.13l0.02-0.07c-0.37-0.44-0.64-0.96-0.8-1.56
		s-0.12-1.3,0.15-2.09c0.16-0.48,0.37-0.88,0.64-1.2s0.61-0.56,1.02-0.7s0.92-0.19,1.51-0.13c0.6,0.06,1.3,0.22,2.12,0.5l8.02,2.68
		L24.44,57.01z"/>
	<path d="M16.69,44l6.39,4.09c0.84,0.54,1.48,0.83,1.9,0.89c0.43,0.06,0.77-0.12,1.03-0.53c0.25-0.39,0.32-0.82,0.2-1.27
		c-0.12-0.45-0.35-0.87-0.69-1.25l-7.14-4.57l1.61-2.51l7.44,4.76c0.58,0.37,1.17,0.72,1.76,1.04s1.15,0.57,1.68,0.75l-1.21,1.9
		l-1.74-0.49l-0.04,0.06c0.33,0.59,0.51,1.21,0.55,1.88c0.04,0.67-0.16,1.34-0.59,2.01c-0.28,0.44-0.59,0.78-0.92,1.04
		c-0.34,0.26-0.73,0.41-1.18,0.46s-0.98-0.03-1.58-0.24c-0.6-0.21-1.3-0.57-2.1-1.08l-6.95-4.44L16.69,44z"/>
	<path d="M21.88,36.63l0.96-0.98l-1.7-1.67l1.42-2.79l2.37,2.33l1.7-1.73l1.92,1.88l-1.7,1.73l3.95,3.87
		c0.52,0.51,0.94,0.82,1.25,0.93c0.32,0.11,0.6,0.04,0.86-0.23c0.18-0.18,0.32-0.36,0.42-0.54s0.2-0.39,0.29-0.62l1.98,1.42
		c-0.12,0.39-0.31,0.81-0.56,1.24s-0.56,0.84-0.93,1.22c-0.67,0.68-1.37,0.99-2.1,0.94c-0.73-0.05-1.57-0.54-2.51-1.46l-4.75-4.66
		l-0.96,0.98L21.88,36.63z"/>
	<path d="M42.61,34.72c-0.14,0.54-0.44,1.11-0.91,1.7c-0.47,0.6-1.03,1.11-1.68,1.55c-0.72,0.48-1.43,0.77-2.12,0.86
		s-1.36,0.01-2.01-0.24s-1.29-0.67-1.9-1.25s-1.21-1.3-1.79-2.17c-1.27-1.9-1.83-3.55-1.69-4.96c0.14-1.4,0.87-2.54,2.19-3.42
		c0.44-0.3,0.92-0.52,1.43-0.66c0.51-0.14,1.03-0.17,1.57-0.07s1.08,0.35,1.64,0.74c0.55,0.39,1.1,0.99,1.63,1.79
		c0.21,0.31,0.41,0.65,0.61,1.03c0.2,0.38,0.4,0.79,0.6,1.25l-5.06,3.37c0.61,0.85,1.24,1.4,1.88,1.65s1.33,0.12,2.07-0.37
		c0.44-0.3,0.8-0.64,1.08-1.02c0.27-0.39,0.46-0.72,0.55-1.01L42.61,34.72z M34.08,28.96c-0.53,0.35-0.78,0.83-0.76,1.44
		s0.27,1.31,0.74,2.11l2.88-1.92c-0.49-0.83-0.98-1.38-1.47-1.66C34.99,28.66,34.53,28.67,34.08,28.96z"/>
	<path d="M50.02,32.95l-2.47-7.31c-0.3-0.88-0.61-1.46-0.94-1.75c-0.32-0.28-0.73-0.34-1.22-0.18c-0.41,0.14-0.72,0.39-0.94,0.75
		c-0.21,0.36-0.32,0.75-0.32,1.18l2.82,8.34l-2.82,0.96l-4.07-12.02l2.25-0.76l0.8,1.28l0.07-0.02c0.13-0.56,0.38-1.09,0.76-1.58
		c0.38-0.49,0.96-0.88,1.75-1.14c0.47-0.16,0.92-0.23,1.34-0.21c0.42,0.02,0.81,0.15,1.18,0.39c0.36,0.24,0.7,0.62,1.02,1.13
		c0.31,0.51,0.61,1.17,0.88,1.99l2.73,8L50.02,32.95z"/>
</g>
</svg>
